<?xml version="1.0" encoding="UTF-8" standalone="no"?>
<!-- Created with Inkscape (http://www.inkscape.org/) -->

<svg
   xmlns:dc="http://purl.org/dc/elements/1.1/"
   xmlns:cc="http://creativecommons.org/ns#"
   xmlns:rdf="http://www.w3.org/1999/02/22-rdf-syntax-ns#"
   xmlns:svg="http://www.w3.org/2000/svg"
   xmlns="http://www.w3.org/2000/svg"
   xmlns:sodipodi="http://sodipodi.sourceforge.net/DTD/sodipodi-0.dtd"
   xmlns:inkscape="http://www.inkscape.org/namespaces/inkscape"
   width="1052.3622"
   height="744.09448"
   id="svg2"
   version="1.1"
   inkscape:version="0.48.2 r9819"
   sodipodi:docname="dessinLogo.svg">
  <defs
     id="defs4" />
  <sodipodi:namedview
     id="base"
     pagecolor="#ffffff"
     bordercolor="#666666"
     borderopacity="1.0"
     inkscape:pageopacity="0.0"
     inkscape:pageshadow="2"
     inkscape:zoom="0.53"
     inkscape:cx="877.28984"
     inkscape:cy="400.99284"
     inkscape:document-units="px"
     inkscape:current-layer="layer1"
     showgrid="false"
     inkscape:window-width="1280"
     inkscape:window-height="676"
     inkscape:window-x="0"
     inkscape:window-y="0"
     inkscape:window-maximized="0" />
  <metadata
     id="metadata7">
    <rdf:RDF>
      <cc:Work
         rdf:about="">
        <dc:format>image/svg+xml</dc:format>
        <dc:type
           rdf:resource="http://purl.org/dc/dcmitype/StillImage" />
        <dc:title></dc:title>
      </cc:Work>
    </rdf:RDF>
  </metadata>
  <g
     inkscape:label="Calque 1"
     inkscape:groupmode="layer"
     id="layer1"
     transform="translate(0,-308.2677)">
    <path
       style="fill:#000000"
       d="m 1.8837324,682.05734 0,-372.5 525.5000076,0 525.50006,0 0,372.5 0,372.49996 -525.50006,0 -525.5000076,0 0,-372.49996 z M 304.30255,1032.5681 c 3.25535,-1.2544 7.799,-4.0139 10.097,-6.1321 2.29801,-2.1182 4.46145,-3.5681 4.80765,-3.2219 0.34621,0.3462 0.91577,-0.1166 1.26571,-1.0285 0.34993,-0.9119 1.84489,-2.9519 3.32212,-4.5333 1.47724,-1.5814 3.50004,-4.8372 4.49512,-7.2351 0.99508,-2.3979 2.39757,-5.4897 3.11665,-6.8706 2.30591,-4.42842 9.51168,-24.28786 8.99868,-24.80086 -0.27238,-0.27237 0.3432,-1.88869 1.36795,-3.59181 1.02475,-1.70313 3.7937,-8.94659 6.15322,-16.09659 2.35952,-7.15 5.08284,-14.8 6.05182,-17 2.2824,-5.18203 11.90527,-30.93189 11.90527,-31.85733 0,-0.39013 -1.58987,-2.2992 -3.53303,-4.24237 l -3.53304,-3.53303 0.28304,-97.02055 0.28303,-97.02055 2.80576,-2.41308 c 2.40851,-2.07143 3.82438,-2.41092 10,-2.39778 3.95683,0.008 7.72859,0.35508 8.38168,0.77035 3.18052,2.02236 3.65962,6.88178 4.09069,41.49115 l 0.43315,34.77681 14.01703,-0.27681 14.01703,-0.27681 13.33322,-36.5 c 7.33327,-20.075 13.35306,-37.33057 13.37733,-38.34571 0.0243,-1.01514 0.71099,-3.04014 1.52608,-4.5 2.16159,-3.87155 32.49408,-86.40368 32.99813,-89.78512 0.17469,-1.17195 1.04774,-3.24512 1.9401,-4.60703 2.8867,-4.40566 6.5798,-21.34519 6.5798,-30.18027 0,-18.45593 -8.19257,-35.54339 -22.02747,-45.94327 -3.16789,-2.38135 -13.34517,-8.06787 -22.61617,-12.63671 -9.271,-4.56883 -17.98136,-8.90859 -19.35636,-9.64391 -8.57945,-4.58809 -25.36111,-12.33021 -25.79222,-11.89909 -0.28276,0.28276 0.0548,14.80768 0.75015,32.27761 1.99034,50.00576 2.26218,65.2635 1.16278,65.2635 -1.29563,0 -1.7411,-1.54831 -4.03114,-14.01097 -3.99456,-21.73881 -10.23968,-42.21166 -15.44917,-50.64576 -3.94114,-6.38065 -6.05621,-8.50468 -7.80177,-7.83484 -2.38241,0.91422 -3.40584,4.20545 -6.37195,20.49157 -3.31205,18.18558 -4.52296,24.33554 -8.95886,45.5 -1.95969,9.35 -4.18725,20.375 -4.95014,24.5 -0.76289,4.125 -3.71612,18.3 -6.56273,31.5 -2.84662,13.2 -5.78677,27.15 -6.53367,31 -0.74691,3.85 -3.39662,16 -5.88826,27 -2.49163,11 -4.53986,20.79361 -4.55163,21.76357 -0.0118,0.96996 -0.45508,2.54496 -0.98515,3.5 -0.53006,0.95504 -2.59204,9.61143 -4.58217,19.23643 -1.99014,9.625 -4.48144,20.64096 -5.53625,24.4799 -1.0548,3.83895 -1.91782,7.10145 -1.91782,7.25 0,0.14856 6.6375,0.27505 14.75,0.28111 8.1125,0.006 16.48852,0.29821 18.61338,0.64924 6.54431,1.08113 6.82239,2.71377 6.42375,37.71351 -0.18873,16.56943 -0.70412,30.8823 -1.14531,31.80636 -1.45548,3.04847 -6.56294,3.81988 -25.29104,3.81988 l -18.35078,0 0,16 0,16 9.39301,0 c 10.44974,0 10.60699,-0.10469 10.60699,-7.06155 0,-6.26113 2.7787,-11.94804 6.62277,-13.55419 4.10625,-1.71571 9.08732,-1.75331 12.37723,-0.0935 3.87388,1.9545 4.88141,6.69031 4.94356,23.23668 0.0866,23.05732 1.03288,22.47256 -36.36599,22.47256 l -26.48666,0 -2.54546,-2.54545 c -2.44548,-2.44549 -2.54997,-3.04439 -2.6606,-15.25 -0.0633,-6.9875 -0.0193,-13.60455 0.0978,-14.70455 0.11711,-1.1 -0.006,-1.775 -0.27396,-1.5 -0.72053,0.73991 -10.70869,25.12989 -10.70869,26.14938 0,2.35321 -25.01613,47.15178 -32.09395,57.47343 -1.55491,2.26754 -2.62813,4.32178 -2.38493,4.56497 0.24319,0.2432 -1.36311,2.20498 -3.56956,4.35952 l -4.01173,3.91735 -4.54972,-2.41362 c -8.16206,-4.32997 -20.57298,-22.24732 -33.63012,-48.55103 -6.66949,-13.43573 -15.56276,-33.04092 -17.4043,-38.36772 -1.02063,-2.95225 -2.45156,-5.60069 -3.17983,-5.88544 -1.54073,-0.6024 -9.1094,6.45893 -13.13352,12.25316 -1.52791,2.2 -5.01445,8.275 -7.74788,13.5 -2.73343,5.225 -7.14764,13.6625 -9.80936,18.75 -2.66173,5.0875 -5.15505,9.25 -5.54072,9.25 -1.02077,0 -11.03806,-15.26991 -15.74437,-24 -10.57113,-19.60918 -28.450064,-73.25976 -42.754894,-128.29761 -3.54482,-13.63868 -6.44512,-25.00118 -6.44512,-25.25 0,-1.27302 -3.06015,-0.20851 -3.89731,1.35573 -1.62484,3.03604 -15.26597,41.52987 -15.62368,44.08838 -0.18428,1.31808 -0.75604,2.66808 -1.27057,3 -1.02388,0.66051 -9.27321,23.3186 -9.72103,26.70037 -0.15273,1.15328 -0.94222,3.40328 -1.75444,5 -2.65369,5.21685 -9.913334,27.48584 -10.843084,33.26123 -2.03893,12.66545 -2.13435,14.14242 -1.00178,15.50708 0.63052,0.75973 0.89465,2.03737 0.58695,2.83921 -0.82604,2.15264 5.067904,17.65366 9.080714,23.88218 6.85133,10.63435 15.91134,17.19992 39.44423,28.5843 8.525,4.12409 21.575,10.47319 29.000004,14.1091 7.425,3.63592 22.5,11.01501 33.5,16.39799 40.5799,19.85823 74.43523,36.4759 90.5,44.4213 22.47553,11.1162 40.20993,19.2687 48,22.0657 8.45793,3.0367 20.53744,2.7681 29.41881,-0.6542 z M 710.4248,970.21628 c 1.83758,-1.83758 3.66072,-4.6147 4.05142,-6.17137 1.00184,-3.99166 -3.0961,-7.46593 -8.89824,-7.54401 -8.74855,-0.11773 -15.69831,-4.9905 -8.19424,-5.74533 3.87778,-0.39006 8.64595,-2.59703 10.83365,-5.01441 0.95045,-1.05024 2.0006,-4.21041 2.33366,-7.02259 0.45523,-3.84366 1.0827,-5.2645 2.52742,-5.72304 1.26931,-0.40286 1.81718,-1.34478 1.61357,-2.77408 -0.44765,-3.14231 -4.67499,-3.49231 -6.8796,-0.56959 -1.47462,1.95495 -2.49985,2.24356 -7.19685,2.02599 -6.10835,-0.28295 -12.03261,1.70443 -13.55382,4.54683 -0.60833,1.13669 -0.68947,5.64701 -0.21289,11.83466 0.70402,9.14049 0.58941,10.31464 -1.33627,13.68976 l -2.10633,3.69177 2.08513,2.80823 c 3.09163,4.16379 6.08714,5.27714 14.24233,5.2935 7.0086,0.0141 7.50519,-0.14045 10.69106,-3.32632 z m -15.1653,-1.74513 c -4.40557,-1.27732 -6.15809,-3.56005 -4.2206,-5.49754 2.43288,-2.43289 8.36089,-2.87281 13.299,-0.98693 5.28724,2.01922 5.13076,3.71934 -0.55157,5.99296 -4.39468,1.7584 -4.19659,1.74698 -8.52683,0.49151 z m -2.53905,-25.37285 c -2.52559,-5.54307 5.36915,-10.28593 9.5083,-5.71222 3.45757,3.82056 0.82845,8.17126 -4.93788,8.17126 -2.69426,0 -3.69544,-0.53867 -4.57042,-2.45904 z m 48.51839,28.96109 c 1.5589,-1.5589 7.6449,-16.46964 7.6449,-18.73006 0,-0.71089 1.56951,-4.88791 3.48779,-9.28226 4.22794,-9.68523 4.48272,-12.48973 1.13465,-12.48973 -3.14939,0 -3.96035,1.23947 -6.07982,9.29248 -0.98324,3.73587 -2.26234,6.63428 -2.84244,6.44091 -0.5801,-0.19336 -2.09922,-3.44797 -3.37583,-7.23246 -2.533,-7.50904 -3.39734,-8.46268 -7.69098,-8.48562 -3.35398,-0.0179 -3.48932,-0.86217 2.27158,14.17026 5.12327,13.3686 5.20316,16.29888 0.59474,21.8148 -1.92517,2.30428 -3.24862,4.59686 -2.94098,5.09462 0.89368,1.44601 6.15778,1.04566 7.79639,-0.59294 z m -509.07458,-9.93327 c 9.63156,-11.52243 28.46793,-45.70064 39.71872,-72.06878 2.11207,-4.95 5.22592,-11.925 6.91966,-15.5 l 3.07952,-6.5 0.006,-40.5 c 0.007,-41.68911 0.44542,-47.10021 3.97322,-48.98823 1.04015,-0.55647 6.14419,-1.01177 11.34268,-1.01177 l 9.4518,0 1.52421,-3.25 c 1.44351,-3.07793 8.3566,-32.12335 11.24595,-47.25 0.73539,-3.85 3.40967,-16.225 5.94285,-27.5 2.53317,-11.275 4.73949,-21.85973 4.90292,-23.52163 0.16343,-1.6619 0.77122,-3.9119 1.35064,-5 1.12416,-2.11105 8.35673,-37.0392 8.44054,-40.76173 0.0274,-1.21915 0.4374,-3.11664 0.91101,-4.21664 1.27682,-2.96553 11.90976,-56.16427 11.90976,-59.58692 0,-1.61712 0.44311,-3.72161 0.98469,-4.67665 0.96067,-1.69407 8.06999,-37.19985 8.47058,-42.30426 0.48222,-6.14444 2.998,-6.39909 8.95664,-0.9066 5.91329,5.45067 10.5381,14.6804 16.02171,31.97443 l 4.59767,14.5 -0.58555,-16.5 c -0.32206,-9.075 -1.02656,-24.15 -1.56556,-33.5 -0.539,-9.35 -1.19728,-22.175 -1.46286,-28.5 -0.26557,-6.325 -0.97488,-19.375 -1.57625,-29 -0.60137,-9.625 -1.18748,-19.975 -1.30248,-23 -1.17461,-30.89882 -1.76604,-42.7327 -2.19901,-44 -0.28186,-0.825 -0.72249,-6 -0.97918,-11.5 -0.25668,-5.5 -0.84225,-10.37697 -1.30126,-10.83771 -0.45901,-0.46074 -3.41058,6.73926 -6.55904,16 -3.14846,9.26074 -6.19504,18.18771 -6.77017,19.83771 -0.57514,1.65 -2.99965,7.14188 -5.38782,12.20417 -2.38816,5.06229 -4.34211,9.8391 -4.34211,10.61514 0,0.77603 -0.82791,2.48416 -1.83981,3.79583 -1.01189,1.31167 -3.78625,5.75986 -6.16523,9.88486 -2.37898,4.125 -6.51573,10.76391 -9.19278,14.75313 -2.67704,3.98922 -5.1585,8.03922 -5.51434,9 -0.67355,1.81856 -5.00918,6.59517 -21.71622,23.92498 -5.4606,5.66416 -10.12717,10.09968 -10.37014,9.8567 -0.24298,-0.24297 -4.02733,2.28768 -8.40967,5.62367 -5.302,4.03607 -7.63394,6.39939 -6.96975,7.06358 0.66418,0.66418 5.1268,0.31012 13.33804,-1.05823 17.40252,-2.90002 32.66697,-4.67009 33.45732,-3.87974 0.88946,0.88945 -0.67663,11.94561 -5.05909,35.71591 -1.97734,10.725 -4.09009,23.1 -4.69499,27.5 -0.60491,4.4 -1.45513,8.9 -1.88938,10 -1.1915,3.01822 -9.16349,44.36343 -9.51892,49.36807 -0.17061,2.40243 -0.79268,5.55243 -1.38236,7 -0.58968,1.44756 -2.62818,10.28193 -4.52999,19.63193 -4.96382,24.4039 -6.25695,30.22865 -6.96548,31.37508 -0.34532,0.55873 -3.76385,14.15176 -7.59675,30.20675 -8.56592,35.88041 -12.491,49.62856 -24.39915,85.46164 -9.67853,29.12387 -16.28326,45.91018 -24.77082,62.95653 -5.70962,11.46715 -15.64222,27.16171 -17.71595,27.99308 -1.46078,0.58564 -6.09454,-3.09326 -6.09454,-4.83865 0,-0.54832 -0.61262,-1.70738 -1.36137,-2.57569 -2.42875,-2.81656 -8.40109,-15.34148 -12.08815,-25.35072 -3.63602,-9.87069 -7.89756,-26.0721 -9.58494,-36.43973 -0.50493,-3.10244 -1.30678,-6.02953 -1.78188,-6.50463 -1.36583,-1.36583 -9.85502,0.96613 -18.8331,5.1734 -6.84286,3.20667 -9.69928,5.35533 -17.03594,12.8148 -4.84804,4.92919 -10.80482,11.56265 -13.23728,14.74103 l -4.42266,5.77887 -1.98295,-2.39588 c -3.59668,-4.34568 -20.13703,-40.9229 -25.72852,-56.89588 -1.25146,-3.575 -2.87564,-7.21043 -3.60929,-8.07874 -0.73366,-0.86831 -1.33392,-2.06909 -1.33392,-2.6684 0,-1.32205 -7.57822,-29.0133 -8.86946,-32.40953 -2.071594,-5.44869 -5.908594,-27.2651 -9.200354,-52.31137 -0.57597,-4.38242 -1.52599,-8.54492 -2.11115,-9.25 -2.70479,-3.25907 -15.54009,-0.32082 -23.16539,5.30302 -4.62785,3.41314 -4.81667,3.73978 -4.18799,7.24466 1.80101,10.04067 8.82851,40.79555 9.52169,41.67036 0.43581,0.55 0.79306,2.125 0.79389,3.5 0.004,6.87753 27.38893,103.0562 30.374634,106.67945 0.53455,0.64869 1.14533,2.54969 1.35728,4.22445 1.08434,8.56801 20.92344,52.41894 26.96255,59.5961 l 2.5243,3 2.25,-2.73773 c 1.2375,-1.50574 5.61427,-9.38074 9.72616,-17.5 10.2766,-20.29196 20.77466,-32.10681 26.55688,-29.88796 0.86294,0.33113 2.48904,2.74488 3.61356,5.36388 1.12453,2.61899 2.85992,6.56181 3.85643,8.76181 0.99652,2.2 2.12687,5.06938 2.51191,6.37639 1.24942,4.2412 10.23909,22.85356 11.37817,23.55755 0.60879,0.37625 1.10689,1.37767 1.10689,2.22538 0,2.04787 9.91358,19.70765 17.0322,30.34068 5.72039,8.54451 13.79474,17 16.23369,17 0.72082,0 2.9774,-1.99405 5.01463,-4.43122 z m 208.88187,-7.06878 c 0.36432,-2.75 0.70182,-9.19101 0.75,-14.31336 l 0.0876,-9.31336 -3.25,0.31336 -3.25,0.31336 -0.28135,12.94711 c -0.15474,7.12092 -0.0443,13.56498 0.24553,14.32014 0.2899,0.75547 1.54089,1.22903 2.78135,1.05289 1.88664,-0.26791 2.36254,-1.13593 2.91686,-5.32014 z m 24.36518,2.4741 c 4.82814,-4.53581 2.76309,-10.32203 -5.1004,-14.29119 -7.28278,-3.67604 -6.84857,-7.43393 0.91094,-7.88371 3.7887,-0.2196 5.16189,-0.69824 5.16189,-1.7992 0,-1.1934 -1.46071,-1.5 -7.14642,-1.5 -8.42823,0 -11.35358,1.80361 -11.35358,7 0,3.80383 2.50819,6.36601 8.34114,8.52068 7.91045,2.92209 5.35483,7.97932 -4.03227,7.97932 -4.48133,0 -5.30887,0.28578 -5.30887,1.83333 0,3.01286 1.15674,3.39764 8.77757,2.91981 5.85018,-0.36681 7.76249,-0.91187 9.75,-2.77904 z m 32.3659,1.65426 c 0.6261,-0.7544 2.2225,-4.55914 3.54756,-8.45498 3.74753,-11.01819 3.94481,-11.15598 6.04436,-4.22162 1.01118,3.33969 2.44063,6.57188 3.17656,7.18265 0.73593,0.61076 1.33805,1.90028 1.33805,2.86559 0,0.96531 0.675,2.31531 1.5,3 1.80046,1.49425 3.87964,0.12056 5.94408,-3.92717 1.38733,-2.72011 8.55592,-22.35834 8.55592,-23.43878 0,-1.388 -4.78287,-0.52573 -6.19002,1.11595 -0.825,0.9625 -2.53509,5.04024 -3.80021,9.06164 l -2.30021,7.31164 -2.35727,-6.74097 c -2.91911,-8.34762 -4.85482,-11.38231 -7.26033,-11.38231 -2.11242,0 -5.09196,3.98591 -5.09196,6.81181 0,1.03519 -0.9,2.91988 -2,4.18819 -1.1,1.26831 -2,2.68717 -2,3.15301 0,0.46584 -0.37691,0.84699 -0.83758,0.84699 -0.46067,0 -1.68697,-2.49889 -2.72513,-5.55309 -2.17578,-6.40103 -4.62846,-9.44691 -7.60709,-9.44691 -1.84397,0 -2.02253,0.42737 -1.50669,3.60613 0.32186,1.98338 1.50574,5.37223 2.63084,7.5308 1.12511,2.15856 2.04565,4.60373 2.04565,5.4337 0,1.55999 3.47846,8.97627 5.24346,11.17937 1.29048,1.6108 2.23843,1.57921 3.65001,-0.12164 z m 56.07135,-0.56262 c 0.56935,-1.06384 1.03518,-6.41399 1.03518,-11.88921 0,-13.69021 -0.81111,-14.67653 -12.0693,-14.67653 -5.70636,0 -8.37979,0.3853 -8.67321,1.25 -0.30468,0.8979 1.09473,1.25 4.96805,1.25 6.06811,0 8.6108,1.38228 9.0054,4.8956 0.24283,2.16208 -0.27733,2.50717 -5.33633,3.54023 -7.6675,1.56573 -10.49383,3.61427 -11.36053,8.2342 -0.63754,3.39838 -0.39374,4.06617 2.39382,6.55686 2.84046,2.53794 3.77775,2.77311 11.05269,2.77311 6.83553,0 8.09405,-0.27095 8.98423,-1.93426 z m -14.76482,-3.26574 c -2.92245,-2.92245 -0.27511,-7.32008 5.00268,-8.3102 3.09568,-0.58075 3.69705,-0.38107 4.26777,1.41709 0.96913,3.05347 -0.15792,5.62968 -3.03672,6.94135 -3.2166,1.46558 -4.73163,1.45386 -6.23373,-0.0482 z m 37.67812,4.29649 c 1.93017,-1.22255 0.64185,-2.82337 -2.8979,-3.60084 -4.15313,-0.91217 -4.98022,-3.05952 -4.98022,-12.92991 l 0,-8.56574 3.94098,0 c 2.16754,0 4.22107,-0.45318 4.56339,-1.00706 0.64394,-1.04194 -0.0566,-1.39816 -4.79719,-2.43922 -2.8416,-0.62403 -3.08134,-0.9599 -4.14271,-5.80372 -0.8942,-4.08091 -3.21047,-3.33871 -5.46145,1.75 -1.28153,2.89711 -2.63393,4.51281 -3.79679,4.53596 -1.47427,0.0294 -1.30082,0.44978 0.94377,2.28757 2.65352,2.1726 2.75,2.58924 2.75,11.87514 0,9.51853 0.0336,9.65179 3.07673,12.21244 3.12839,2.63237 8.08518,3.4058 10.80139,1.68538 z m 24.55678,-0.0717 c 1.41081,-0.53639 2.5651,-1.66139 2.5651,-2.5 0,-1.15877 -1.17539,-1.52479 -4.89641,-1.52479 -4.35307,0 -5.2408,-0.39225 -8,-3.5348 -3.59807,-4.09798 -3.94159,-7.57867 -1.19284,-12.08646 1.40494,-2.30402 2.90949,-3.29985 5.74626,-3.80332 6.09825,-1.08232 7.34299,-1.61507 7.34299,-3.14281 0,-1.75444 -8.3821,-1.99629 -12.6849,-0.366 -9.51531,3.60526 -12.07265,17.07775 -4.58105,24.13378 3.89907,3.67237 10.39633,4.84114 15.70085,2.82436 z m 13.98331,0.36826 c 1.28567,-0.4934 1.58179,-2.35012 1.58179,-9.91825 0,-5.12117 0.27127,-10.01814 0.60282,-10.88216 0.33156,-0.86401 2.445,-2.06697 4.69654,-2.67325 6.19708,-1.6687 6.4914,-0.9259 7.95653,20.08061 0.2094,3.00227 0.63518,3.545 2.99411,3.81642 l 2.75,0.31642 0,-12.11187 c 0,-11.63088 -0.10068,-12.21256 -2.53522,-14.6471 -2.31085,-2.31085 -3.15183,-2.50596 -9.50226,-2.20455 l -6.96703,0.33068 -0.0131,-5.5 c -0.015,-6.32576 -0.94396,-8.34633 -3.60226,-7.83544 -1.75206,0.33673 -1.89873,1.68709 -2.15253,19.81892 -0.14981,10.70166 -0.0514,20.03334 0.21861,20.73705 0.54188,1.41211 1.58451,1.58863 3.97196,0.67248 z m 32.58179,-13.28606 c 0,-14.80909 -0.10215,-15.10699 -5.1799,-15.10699 -1.93784,0 -2.00278,0.5158 -1.66821,13.25 0.19146,7.2875 0.71217,13.8125 1.15713,14.5 0.44496,0.6875 1.90746,1.25 3.25,1.25 l 2.44098,0 0,-13.89301 z m 14,3.548 c 0,-11.45758 0.64575,-12.82639 6.65262,-14.10176 5.08567,-1.07979 6.34738,1.74994 6.34738,14.2357 l 0,10.34391 2.75,-0.31642 2.75,-0.31642 0.28231,-10.59992 c 0.15527,-5.82996 -0.16191,-11.7683 -0.70484,-13.19633 -1.41361,-3.71806 -6.93058,-5.13991 -16.47374,-4.24564 l -7.60373,0.71253 0,13.24801 c 0,7.28641 0.3,13.54802 0.66667,13.91468 0.36666,0.36667 1.71666,0.66667 3,0.66667 2.29407,0 2.33333,-0.17405 2.33333,-10.34501 z m 117.37965,8.95974 c 9.15388,-3.82473 11.19371,-19.91682 3.18945,-25.16141 -6.13508,-4.01986 -16.50626,-2.69358 -21.03637,2.69016 -2.17302,2.58248 -2.53273,3.98673 -2.53273,9.88744 l 0,6.87747 4.6438,3.5458 c 5.17675,3.95274 9.8958,4.60067 15.73585,2.16054 z m -11.37965,-5.61473 c -3.09764,-3.09764 -2.8297,-12.26121 0.45455,-15.54545 2.86726,-2.86727 3.65448,-2.96665 7.54855,-0.95295 5.0594,2.61632 5.86676,12.48568 1.38778,16.96466 -2.15074,2.15075 -7.01541,1.90921 -9.39088,-0.46626 z m 42.42518,6.12106 c 0.29877,-0.48342 2.57533,-0.6499 5.05902,-0.36995 l 4.5158,0.50899 -0.0153,-12.88005 c -0.008,-7.08403 -0.39682,-13.48192 -0.86309,-14.21754 -0.46628,-0.73562 -1.92189,-1.18562 -3.23469,-1 -2.30238,0.32554 -2.40599,0.70947 -2.92578,10.84137 -0.29638,5.77714 -0.88544,11.06464 -1.30902,11.75 -1.09896,1.77815 -7.1615,1.5422 -8.72317,-0.3395 -0.79801,-0.96154 -1.53497,-5.58614 -1.87244,-11.75 l -0.55651,-10.16438 -2.75,-0.31642 -2.75,-0.31642 0.0703,11.31642 c 0.0792,12.74615 0.47056,14.35402 3.95966,16.26645 2.80877,1.53953 10.5758,1.9969 11.39523,0.67103 z m 23.23693,-2.05773 c 1.81418,-3.65804 0.0498,-6.26198 -3.97855,-5.87173 -2.66288,0.25796 -3.23664,0.77198 -3.50813,3.14287 -0.49931,4.36044 0.458,5.84067 3.54571,5.4825 1.69993,-0.19719 3.18918,-1.23777 3.94097,-2.75364 z m 14.76646,1.36524 c 1.95822,-1.95822 1.95595,-2.43458 -0.0251,-5.26296 -2.31611,-3.30671 -5.5987,-2.49897 -6.78947,1.67067 -0.73632,2.5783 -0.6303,3.5404 0.46662,4.23469 2.14426,1.35719 4.59656,1.10902 6.34798,-0.6424 z m 14.37143,0.37143 c 1.6859,-1.6859 1.49517,-5.7495 -0.30224,-6.43923 -0.82623,-0.31706 -2.62623,-0.29436 -4,0.0504 -4.14147,1.03948 -2.845,7.58883 1.50224,7.58883 0.88,0 2.14,-0.54 2.8,-1.2 z m -422,-34 c 2.01426,-2.01426 1.3898,-4.71426 -1.24316,-5.37509 -1.34375,-0.33726 -2.91875,-0.31927 -3.5,0.04 -1.16788,0.72179 -1.44025,4.81839 -0.39017,5.86846 1.06133,1.06133 3.8259,0.7741 5.13333,-0.53333 z m 207.80839,-0.22186 c 0.81386,-2.12089 -1.4078,-5.57814 -3.58456,-5.57814 -2.46973,0 -2.95744,0.89646 -2.31528,4.2557 0.39952,2.08994 1.1004,2.7443 2.93941,2.7443 1.32815,0 2.66034,-0.63984 2.96043,-1.42186 z M 461.02296,904.64777 c 2.31758,-1.87462 2.36993,-2.30316 2.86078,-23.41926 0.275,-11.83033 0.79783,-21.80635 1.16184,-22.16894 0.76742,-0.76441 2.36967,1.94647 14.77477,24.99777 5.03172,9.35 10.27951,18.0125 11.66175,19.25 5.30276,4.74748 16.51432,1.69458 14.87757,-4.05115 -0.71205,-2.49963 -7.35292,-16.43336 -10.34175,-21.69885 -6.8942,-12.14566 -18.10819,-34.24633 -18.98137,-37.40872 -0.93022,-3.36899 -0.73596,-4.2387 1.90569,-8.53194 1.61783,-2.62929 2.9415,-5.20584 2.9415,-5.72566 0,-0.51982 1.15492,-2.49505 2.56648,-4.3894 1.41157,-1.89435 6.13657,-9.36073 10.5,-16.59196 7.40274,-12.26804 7.93352,-13.52249 7.93352,-18.75 l 0,-5.60232 -6.75,0.049 -6.75,0.049 -5.25,8.30301 c -2.8875,4.56665 -5.25,8.76449 -5.25,9.32852 0,0.56403 -0.63841,1.55534 -1.41868,2.20291 -1.43238,1.18877 -9.47109,14.07969 -10.7991,17.31749 -0.39477,0.9625 -1.13413,1.75 -1.64301,1.75 -0.50888,0 -1.22771,-0.7875 -1.5974,-1.75 -0.36969,-0.9625 -0.93954,-25.26691 -1.26633,-54.0098 -0.46182,-40.61928 -0.87889,-52.49609 -1.8724,-53.32063 -0.77717,-0.645 -3.06665,-0.79265 -5.84065,-0.37666 l -4.56243,0.68425 0,97.21979 c 0,53.47088 0.3,97.51979 0.66667,97.88645 1.41246,1.41246 8.18318,0.6089 10.47255,-1.2429 z m 114.26,-1.5351 c 1.59457,-1.61957 3.27133,-4.54457 3.72614,-6.5 1.07543,-4.62377 1.08029,-101.46622 0.005,-106.08706 -0.45188,-1.94245 -2.05866,-4.86745 -3.57062,-6.5 l -2.74901,-2.96827 -21.0461,-0.32395 -21.04609,-0.32395 -4.85943,4.78636 -4.85943,4.78636 0.0239,50.53759 c 0.0131,27.79567 0.43962,52.33759 0.94779,54.53759 0.61661,2.66951 2.28981,5.27616 5.03032,7.83666 l 4.10638,3.83665 20.69583,-0.33665 20.6961,-0.33666 2.89922,-2.94467 z M 542.49247,887.7539 c -5.00397,-1.20555 -5.78839,-5.83732 -6.33524,-37.40773 -0.48134,-27.78817 0.40046,-41.69262 2.89767,-45.69129 1.72836,-2.76755 5.17948,-4.09754 10.63249,-4.09754 6.30826,0 10.28105,1.24722 13.51266,4.24218 l 2.68369,2.48716 -0.008,30.38533 c -0.008,31.5306 -1.00417,46.32566 -3.27229,48.59379 -1.51712,1.51711 -15.65028,2.56286 -20.11139,1.4881 z m -197.96584,15.5904 c 1.43495,-1.43602 1.78431,-4.36386 2.16034,-18.10511 0.44614,-16.30288 0.4358,-16.40102 -1.89983,-18.03696 -3.14098,-2.20003 -11.19934,-2.19816 -13.02616,0.003 -0.76241,0.91865 -1.62755,5.18514 -1.95496,9.64096 -0.45449,6.18525 -1.00769,8.30042 -2.44593,9.35208 -2.47471,1.80955 -21.36422,1.89274 -23.8093,0.10486 -1.52886,-1.11793 -1.68542,-3.20925 -1.44113,-19.25 l 0.27408,-17.99579 21.33254,-0.5 c 19.64101,-0.46035 21.44493,-0.65392 22.75,-2.44113 1.14672,-1.57036 1.41746,-7.52686 1.41746,-31.1849 0,-16.69646 -0.42087,-30.35075 -0.98092,-31.82378 l -0.98092,-2.58001 -29.76908,0.26491 -29.76908,0.26491 -0.62579,7 c -0.34418,3.85 -0.68168,31.15536 -0.75,60.67857 -0.11269,48.69805 0.0292,53.83199 1.52924,55.33202 1.4742,1.4742 4.61438,1.61746 28.96556,1.32143 24.17634,-0.2939 27.50865,-0.5287 29.02388,-2.04506 z m -35.81008,-73.91932 c -2.01695,-0.56493 -4.32693,-1.77876 -5.13327,-2.6974 -3.90867,-4.45297 -3.75865,-23.08446 0.21176,-26.2995 4.51249,-3.654 20.8948,-2.97649 22.99063,0.9508 1.78814,3.35072 2.33323,13.13237 1.09693,19.68452 -1.21351,6.43134 -2.00015,7.70981 -4.98128,8.0957 -8.53697,1.10506 -11.02238,1.15165 -14.18477,0.26588 z m 15.28367,-5.02187 c 0.46909,-0.74018 0.85979,-5.95827 0.86821,-11.59577 l 0.0153,-10.25 -9.53138,0 c -11.31504,0 -10.96862,-0.38945 -10.96862,12.33119 0,11.09882 0.57785,11.67493 11.2315,11.19772 4.90951,-0.21991 7.82906,-0.80596 8.38498,-1.68314 z m 94.93271,78.62879 c 1.6702,-0.86369 3.56564,-2.7863 4.21209,-4.27246 1.67394,-3.84833 2.36018,-106.67238 0.73222,-109.71425 -2.57836,-4.81771 -5.54257,-5.48785 -24.27418,-5.48785 l -17.4721,0 -0.43175,-36.25 c -0.31,-26.02738 -0.77779,-36.88451 -1.6588,-38.5 -1.07251,-1.96664 -2.0097,-2.24599 -7.44185,-2.2182 -3.9523,0.0202 -6.94292,0.58195 -8.21482,1.54296 -1.97559,1.49272 -2,2.68155 -2,97.41807 0,77.27634 0.25211,96.15947 1.29784,97.20704 1.95888,1.96235 12.65417,2.67844 33.45839,2.24018 14.49374,-0.30533 19.44634,-0.752 21.79296,-1.96549 z m -31.90757,-12.36977 c -5.89142,-0.74846 -7.72435,-2.36365 -8.72296,-7.68669 -0.33373,-1.77894 -0.44724,-19.81326 -0.25224,-40.07627 0.38694,-40.20791 0.40014,-40.29788 6.2122,-42.32397 3.80668,-1.32702 15.49141,-1.30773 19.33432,0.0319 5.61073,1.95591 5.75721,2.99806 6.107,43.45022 0.32986,38.14612 -0.0975,43.52455 -3.60519,45.36908 -2.544,1.33778 -12.95854,2.01252 -19.07313,1.23571 z m -0.60894,-38.29029 c 0.28781,-1.63366 1.13877,-3.94774 1.89103,-5.14239 0.75226,-1.19466 3.04816,-6.89711 5.10202,-12.67211 2.05385,-5.775 4.3047,-11.85 5.00189,-13.5 2.62172,-6.20471 4.74751,-14.34064 4.15228,-15.89179 -0.49077,-1.27891 -2.14593,-1.60821 -8.08342,-1.60821 -4.10645,0 -8.62058,0.43886 -10.03138,0.97525 l -2.5651,0.97525 0.0706,29.27475 0.0706,29.27475 1.93406,-4.35761 c 1.06373,-2.39668 2.16954,-5.69423 2.45735,-7.32789 z m 447.0483,50.74437 c 1.09181,-1.49353 1.41902,-5.80892 1.41902,-18.71482 0,-19.03052 0.0819,-18.84405 -8.27927,-18.84405 -6.2537,0 -7.72371,2.00011 -8.44105,11.48498 -0.80268,10.61329 -1.00751,10.75486 -14.97163,10.34729 -8.76653,-0.25586 -11.6022,-0.67721 -12.33099,-1.83227 -0.52054,-0.825 -0.95333,-9.19375 -0.96175,-18.59721 l -0.0153,-17.09721 11.25,-0.64824 c 6.1875,-0.35654 15.6375,-0.65029 21,-0.65279 12.62358,-0.006 13.28504,-0.57815 14.2649,-12.3412 0.8239,-9.89079 0.0565,-50.08961 -1.01966,-53.41335 l -0.7285,-2.25 -29.34819,0 c -27.99223,0 -29.39601,0.0894 -30.38337,1.93426 -1.12736,2.10649 -1.24959,89.68592 -0.15362,110.06574 l 0.61844,11.5 3.5,0.6677 c 1.925,0.36724 14.67394,0.59224 28.33098,0.5 23.32001,-0.1575 24.91732,-0.28582 26.25,-2.10883 z M 798.4405,829.58952 c -2.34821,-0.46459 -4.87631,-1.86493 -6.25,-3.46194 -2.08836,-2.42787 -2.30676,-3.66372 -2.30676,-13.05342 0,-10.0136 0.091,-10.44321 2.63486,-12.44424 2.18227,-1.71658 4.0527,-2.07258 10.88921,-2.07258 11.57506,0 12.68041,1.00922 13.25033,12.09791 0.51664,10.05205 -0.51571,14.64862 -3.81854,17.00217 -3.01699,2.14986 -9.14343,2.97192 -14.3991,1.9321 z m -161.49102,72.93264 c 1.62303,-0.86862 1.93426,-2.13616 1.93426,-7.87756 0,-8.54189 -0.93166,-9.46226 -9.57839,-9.46226 l -6.42161,0 0,-42.69587 0,-42.69587 2.25,-0.60297 c 1.2375,-0.33164 4.37167,-0.60913 6.96482,-0.61664 5.70403,-0.0165 6.79206,-1.49476 6.76987,-9.19791 -0.0219,-7.58592 -0.69647,-8.23261 -9.19643,-8.81574 l -7.28826,-0.5 -0.5,-17 c -0.275,-9.35 -0.86406,-17.5625 -1.30902,-18.25 -1.26012,-1.947 -12.31713,-1.66662 -13.08399,0.33179 -0.33385,0.86998 -0.60699,8.98112 -0.60699,18.02475 l 0,16.44296 -2.49132,0.9472 c -1.37022,0.52096 -3.17595,0.68447 -4.01273,0.36337 -2.99552,-1.14949 -4.49595,1.58061 -4.49595,8.18059 0,8.48552 0.42663,9.25081 5.58857,10.02489 l 4.41143,0.66154 0.0724,32.13645 c 0.0804,35.67749 1.15445,68.5765 2.29928,70.42886 0.94641,1.53133 25.87501,1.68112 28.69404,0.17242 z m 33.37364,-1.91451 c 1.16545,-0.96724 1.56062,-3.23356 1.56062,-8.95025 0,-10.30167 -1.26333,-12.10006 -8.5,-12.10006 -7.33125,0 -8.5,1.74251 -8.5,12.67282 0,6.75885 0.31244,8.42017 1.75,9.30532 2.25862,1.39069 11.66383,0.75323 13.68938,-0.92783 z m 72.49195,0.96939 c 1.87996,-0.53917 4.68949,-2.19836 6.24339,-3.6871 l 2.82528,-2.70678 0,-53.12582 0,-53.12582 -2.75,-2.59392 c -4.05373,-3.82366 -9.0997,-4.76848 -25.5,-4.77468 l -14.75,-0.006 -0.0844,-30.25 c -0.0987,-35.3662 -0.56647,-40.685 -3.88958,-44.22228 -2.5749,-2.74086 -7.66672,-3.37523 -12.46094,-1.55247 l -2.56508,0.97525 0,97.35808 c 0,53.54695 0.3,97.65809 0.66667,98.02475 1.05779,1.0578 48.47491,0.77325 52.26466,-0.31363 z m -31.55706,-11.65371 c -1.16915,-0.25989 -3.19415,-1.60968 -4.5,-2.99954 l -2.37427,-2.52703 0,-39.34595 c 0,-48.92272 -1.49485,-44.866 16.68223,-45.27205 l 12.4707,-0.27858 1.42353,2.77858 c 1.13908,2.22335 1.48257,10.21697 1.71895,40.00307 0.31164,39.26853 -0.0757,43.72156 -4.01979,46.21299 -2.26424,1.43029 -16.9757,2.41226 -21.40135,1.42851 z m -483.44685,-4.00085 c 1.13992,-1.44917 2.07258,-3.18346 2.07258,-3.85398 0,-0.67051 1.07336,-2.37729 2.38524,-3.79283 3.01033,-3.2482 8.61476,-12.97748 8.61476,-14.9552 0,-0.82138 0.83781,-2.5666 1.8618,-3.87827 3.64711,-4.67173 21.1382,-48.57779 21.1382,-53.06103 0,-1.10838 0.6479,-3.20968 1.43979,-4.66954 4.11415,-7.58457 15.29422,-47.64189 27.53458,-98.65429 3.43127,-14.3 6.85482,-28.025 7.6079,-30.5 2.39858,-7.88293 17.4604,-83.12195 16.84063,-84.12476 -0.3273,-0.52957 -0.12443,-1.52995 0.45081,-2.22308 0.57525,-0.69312 1.48465,-4.38591 2.0209,-8.20619 0.53625,-3.82028 3.31991,-20.06306 6.18591,-36.09506 2.866,-16.032 4.93446,-29.8695 4.59658,-30.75 -0.94263,-2.45645 -7.62708,-2.02014 -30.6771,2.00235 -11.275,1.96762 -23.19387,3.8236 -26.48638,4.1244 -5.58003,0.50979 -5.8894,0.43005 -4.55756,-1.17471 0.78585,-0.9469 4.40562,-3.22072 8.04394,-5.05295 3.63832,-1.83223 7.20682,-4.04427 7.93,-4.91566 0.72319,-0.87139 1.90709,-1.58434 2.6309,-1.58434 3.83226,0 28.18245,-21.55517 39.1548,-34.66044 l 4.19402,-5.00929 -11.70486,-5.82537 c -6.43767,-3.20395 -12.82986,-6.45822 -14.20486,-7.23171 -1.375,-0.77349 -9.7,-4.91734 -18.5,-9.20857 -37.31851,-18.19796 -52.26479,-25.0667 -56.5,-25.96523 -5.93381,-1.25891 -21.741,-0.75839 -23.23511,0.73572 -0.64069,0.64069 -1.98383,1.16489 -2.98476,1.16489 -5.45296,0 -21.44282,14.72723 -25.19046,23.20132 -2.84069,6.4233 -26.84432,72.42148 -28.65919,78.79868 -0.70436,2.475 -1.66967,5.01757 -2.14514,5.65014 -1.19955,1.59593 -9.95942,26.32959 -10.32314,29.14761 -0.16311,1.26377 -0.76557,2.86286 -1.33878,3.55354 -1.30833,1.57644 -8.94215,22.78171 -9.65215,26.8118 -0.28998,1.64599 -1.16629,3.97015 -1.94735,5.1648 -0.78107,1.19466 -6.40652,16.12211 -12.50101,33.17211 -6.09449,17.05 -13.101864,36.4 -15.571934,43 -4.47513,11.95746 -6.13921,19.95662 -4.37806,21.04507 0.50989,0.31513 0.92708,2.09485 0.92708,3.95493 0,1.86008 0.45,3.66008 1,4 0.55,0.33992 1,3.12056 1,6.1792 0,6.41097 3.20202,28.89102 5.885664,41.3208 2.59985,12.04165 9.59637,35.4923 14.62396,49.01597 9.19266,24.72726 22.03037,53.55728 24.90117,55.92128 1.56865,1.29172 2.01092,1.08921 4.3679,-2 5.89557,-7.72711 19.61873,-20.80508 25.47375,-24.27613 3.43616,-2.03706 8.72256,-4.46939 11.74756,-5.40519 3.025,-0.93579 5.725,-1.99609 6,-2.35622 0.275,-0.36013 2.34616,-0.96323 4.60259,-1.34024 3.83627,-0.64096 4.17556,-0.50285 5.22676,2.12754 0.6183,1.54714 1.60368,5.91566 2.18974,9.70782 0.58606,3.79216 1.49652,7.70007 2.02324,8.68426 0.52672,0.98418 0.97215,2.83151 0.98984,4.10517 0.0823,5.92163 13.91997,41.44207 18.46702,47.40356 3.12998,4.10361 3.75255,4.1789 6.42823,0.77732 z"
       id="path3232"
       inkscape:connector-curvature="0" />
    <path
       style="fill:#fefefe"
       d="m 740.30652,773.81989 c -1.08955,-0.67635 -1.98099,-1.95903 -1.98099,-2.85041 0,-0.89138 -0.68776,-1.90196 -1.52836,-2.24576 -2.26083,-0.92464 -1.66643,-11.01483 0.82146,-13.94479 1.10142,-1.29713 3.62128,-3.04943 5.59971,-3.89401 1.97841,-0.84459 6.28135,-3.3373 9.56207,-5.53937 3.28072,-2.20206 6.84649,-4.01847 7.92394,-4.03648 1.07746,-0.018 5.92984,-2.10281 10.78309,-4.63292 7.39277,-3.85401 8.55128,-4.84149 7.14223,-6.08783 -0.925,-0.8182 -1.39528,-2.39805 -1.04503,-3.51075 0.81115,-2.57704 13.80813,-15.68881 16.43089,-16.576 1.68025,-0.56838 1.76981,-1.06725 0.59485,-3.31313 -0.76078,-1.45421 -1.71279,-2.91546 -2.11557,-3.24724 -1.92939,-1.58927 -0.89297,-10.81213 1.59302,-14.17604 0.61298,-0.82944 2.07093,-1.50808 3.23989,-1.50808 2.68672,0 2.71648,-2.46473 0.0745,-6.17127 -1.12799,-1.5825 -3.37179,-5.32037 -4.98624,-8.30639 -1.61445,-2.98601 -4.23393,-6.72188 -5.82105,-8.30191 -2.69636,-2.68429 -3.46471,-2.82207 -11.71065,-2.09997 -18.01083,1.57721 -17.92302,1.54424 -19.09936,7.17104 -1.44438,6.90885 -7.62523,10.85667 -15.59825,9.96285 -6.45535,-0.72369 -9.01086,-2.58937 -8.37821,-6.11664 0.37421,-2.08637 -0.14995,-2.59684 -2.89543,-2.81981 -4.69641,-0.3814 -4.91755,-0.65836 -5.72864,-7.17498 -0.88737,-7.12939 2.11441,-14.74031 6.68998,-16.96226 3.46796,-1.68406 9.95135,-0.82038 13.95177,1.85859 2.82813,1.89393 6.02572,1.74527 17.70522,-0.82317 3.91957,-0.86195 9.66098,-1.17892 13.57596,-0.74949 5.71202,0.62656 7.54282,0.3151 11.58627,-1.97108 6.83256,-3.86314 6.82269,-5.30864 -0.0477,-6.97182 -3.22892,-0.78166 -7.1541,-2.37991 -8.72262,-3.55166 -1.56853,-1.17175 -4.0663,-2.54126 -5.55058,-3.04335 -2.36365,-0.79955 -11.40742,-9.46276 -11.40742,-10.92739 0,-0.29993 -1.11065,-1.90674 -2.46812,-3.57068 -1.88958,-2.31619 -3.56361,-3.02536 -7.14159,-3.02536 -8.32068,0 -10.96974,-5.10352 -4.32417,-8.33067 2.80678,-1.363 2.83767,-1.4863 0.78672,-3.14123 -1.1741,-0.94739 -2.65827,-1.7398 -3.29815,-1.76091 -0.63987,-0.0211 -1.98953,-1.06669 -2.99923,-2.32352 -1.00969,-1.25683 -2.77844,-2.85176 -3.93055,-3.54428 -3.16044,-1.89972 -0.26796,-4.29509 5.2731,-4.36684 3.57538,-0.0463 4.38672,-0.44163 3.83473,-1.86844 -1.85404,-4.79238 -1.20342,-5.42821 5.58767,-5.46078 l 6.60228,-0.0316 2.56035,-5.66194 c 1.4082,-3.11406 4.64521,-8.07255 7.19336,-11.01885 2.75265,-3.18277 5.16233,-7.48234 5.93722,-10.59376 4.80794,-19.30543 8.3067,-32.8161 10.21523,-39.44679 1.21384,-4.21715 2.20697,-9.19384 2.20697,-11.05932 0,-1.86548 0.47943,-3.57276 1.0654,-3.79396 0.58598,-0.22118 3.40785,-6.37418 6.27084,-13.67333 8.88274,-22.64642 23.99535,-48.26645 37.89622,-64.24459 4.0767,-4.68589 4.68154,-4.75081 9.79039,-1.05084 5.69539,4.12475 9.22224,9.79552 10.64957,17.12332 1.99213,10.22743 0.79118,13.67566 -8.23669,23.64959 -21.45166,23.69962 -39.97249,54.20984 -48.80198,80.39372 -1.63559,4.85035 -2.97379,9.10105 -2.97379,9.446 0,0.34496 1.5913,0.25469 3.53624,-0.20059 5.29393,-1.23925 7.06642,-1.58279 8.69156,-1.68457 0.81063,-0.0508 2.04016,-1.85677 2.73231,-4.01334 0.69213,-2.15656 4.49033,-10.70743 8.44042,-19.00192 12.00679,-25.2121 28.54603,-47.46407 47.07388,-63.33345 10.22701,-8.75959 26.74899,-19.91306 29.49783,-19.91306 0.98714,0 3.06722,2.8901 4.80561,6.67702 2.6414,5.75404 2.98606,7.72649 2.49333,14.26885 -0.97175,12.90245 -2.95539,15.78659 -14.97474,21.77283 -26.39668,13.14682 -50.33645,35.83033 -63.32102,59.99818 l -3.0065,5.59594 7.67439,1.85636 c 6.78643,1.64156 7.97496,1.64984 10.27212,0.0716 4.63239,-3.18277 13.01416,-3.48977 18.53303,-0.67881 2.69777,1.37408 6.30905,2.86134 8.02505,3.30502 1.716,0.44368 5.40912,3.52026 8.20694,6.83686 4.65906,5.52294 5.08695,6.56123 5.08695,12.34353 0,9.3169 -2.64102,17.23257 -7.52989,22.56865 -2.33723,2.55102 -5.01209,4.63822 -5.94415,4.63822 -1.31806,0 -1.39278,0.32173 -0.33626,1.44776 1.60923,1.71511 1.80178,11.62986 0.30723,15.81947 -1.35752,3.80545 -6.001,5.3548 -13.09874,4.37052 -3.11298,-0.43168 -6.24264,-0.30046 -6.95481,0.29162 -1.93082,1.60522 -10.98155,1.50143 -13.89314,-0.15933 -2.17249,-1.23919 -3.14968,-1.01004 -6.69578,1.57012 -2.28363,1.66159 -5.93493,3.83189 -8.11402,4.82291 l -3.96197,1.80187 6.56902,0.0985 c 5.04015,0.0755 7.53828,0.80039 10.73369,3.11459 2.29058,1.65889 4.79906,3.01617 5.57438,3.01617 0.77534,0 4.11627,1.56065 7.42426,3.4681 3.30801,1.90746 7.58054,3.83466 9.49448,4.2827 1.91395,0.44803 4.67977,2.00598 6.14627,3.46212 4.1945,4.1649 10.29672,8.2926 14.61736,9.88758 3.2953,1.21647 3.94168,2.02164 3.83132,4.77252 -0.12389,3.08842 0.10256,3.25616 3.39598,2.51456 1.9408,-0.43702 5.82102,-1.08361 8.6227,-1.43687 6.55241,-0.82618 7.58636,-1.95264 5.26223,-5.73306 -1.02644,-1.66963 -1.86399,-3.73343 -1.86122,-4.58622 0.002,-0.8528 -1.21215,-5.89383 -2.69982,-11.20231 -5.6079,-20.01071 -6.73748,-27.46742 -6.06368,-40.02802 0.70818,-13.20122 1.31661,-15.69044 4.0622,-16.61919 1.0376,-0.35098 2.39137,-1.86466 3.0084,-3.36372 2.01461,-4.89449 12.977,-4.37744 13.04378,0.61521 0.0426,3.17879 2.00226,6.14381 4.80064,7.26325 2.98105,1.1925 3.60844,4.17563 2.31622,11.01299 -1.03706,5.48717 -0.5488,16.26041 1.18009,26.0386 1.08155,6.11698 3.97905,18.80701 5.09622,22.31971 3.44546,10.83335 5.08237,18.82533 5.09855,24.89308 0.0408,15.27052 -8.52458,17.49841 -20.04965,5.21505 -4.12337,-4.39467 -4.15312,-4.40406 -11.19925,-3.53245 -4.58325,0.56694 -9.63796,2.30379 -14.39008,4.94456 -4.25689,2.36559 -9.00343,4.07613 -11.33181,4.08371 -9.9196,0.0323 -23.7559,6.48978 -41.36236,19.30394 -2.49038,1.81253 -6.56555,4.72902 -9.05594,6.4811 -2.49038,1.75209 -6.03847,4.5365 -7.88466,6.18758 -1.84619,1.65107 -4.23575,3.00197 -5.31016,3.00197 -3.76071,0 -3.08214,2.0513 1.92218,5.81076 4.89739,3.67913 5.90855,6.07578 4.36831,10.35371 -1.08556,3.01502 -13.3781,11.34056 -21.63463,14.6528 -4.17487,1.6748 -8.37593,3.80238 -9.33571,4.72798 -0.95977,0.92558 -4.03733,2.78184 -6.83901,4.12502 -2.80168,1.34319 -6.36745,3.24276 -7.92394,4.22128 -5.28622,3.32334 -13.15855,6.78037 -15.35629,6.74355 -1.20427,-0.0202 -3.08103,-0.59006 -4.17057,-1.26642 z m 31.79011,-18.17857 c 0.20753,-0.56558 0.86551,-1.02833 1.46219,-1.02833 0.59668,0 4.35345,-1.62874 8.3484,-3.61941 3.99495,-1.99068 7.68078,-3.61942 8.19073,-3.61942 0.50996,0 3.46023,-2.43526 6.55616,-5.41171 5.48846,-5.27662 5.57246,-5.45917 3.36498,-7.31374 -1.24519,-1.04611 -3.7086,-2.21697 -5.47426,-2.6019 -1.76564,-0.38493 -3.48886,-1.47366 -3.82938,-2.41942 -0.98953,-2.74833 1.94728,-7.30008 5.776,-8.95223 3.80221,-1.6407 10.52474,-6.95397 15.28376,-12.07978 1.62789,-1.75334 5.4028,-4.3571 8.38871,-5.78613 2.9859,-1.42903 6.39682,-3.62981 7.57979,-4.89062 2.47124,-2.63384 11.81451,-7.2793 19.25305,-9.57259 2.80168,-0.86376 6.11275,-2.02073 7.35794,-2.57104 1.2452,-0.55031 4.55627,-1.36512 7.35795,-1.81068 2.80168,-0.44558 7.90381,-2.28587 11.33807,-4.08955 11.93449,-6.26805 26.06067,-5.6098 30.90907,1.44031 3.09754,4.50416 7.19835,6.35132 9.52717,4.2914 2.69638,-2.38503 0.7282,-17.12022 -5.20556,-38.97266 -1.26127,-4.64491 -2.64405,-11.97423 -3.07285,-16.28736 -0.4288,-4.31313 -1.20445,-9.05071 -1.72366,-10.52794 -0.59505,-1.69299 -0.26568,-5.61559 0.89099,-10.61111 1.31168,-5.66507 1.48705,-8.29608 0.6149,-9.22562 -0.87215,-0.92953 -1.61384,0.10026 -2.60072,3.61086 -0.75933,2.70118 -2.07079,5.19351 -2.91435,5.53851 -1.22168,0.49965 -1.48105,-1.26719 -1.27481,-8.68387 0.28391,-10.20972 -0.37382,-12.32732 -3.82891,-12.32732 -2.19296,0 -2.26189,0.47212 -1.49729,10.255 0.77075,9.86151 0.71099,10.25501 -1.55738,10.25501 -1.98101,0 -2.48114,-0.98233 -3.12213,-6.13224 -1.08255,-8.69756 -2.6772,-5.03661 -2.6711,6.13224 0.008,14.15229 4.00968,34.38639 9.80285,49.56373 0.90714,2.37658 1.48333,6.17696 1.28041,8.4453 l -0.36894,4.12423 -10.18793,1.36624 c -6.12101,0.82085 -12.85547,2.63302 -16.87033,4.53962 -3.6753,1.74537 -8.20268,3.45886 -10.06083,3.80776 -1.85815,0.3489 -4.29359,1.15635 -5.4121,1.79435 -3.70327,2.11232 -5.35084,1.2165 -7.83942,-4.26246 -1.3546,-2.98233 -2.93792,-5.73531 -3.51848,-6.11773 -0.58057,-0.38242 -2.31869,-3.35194 -3.8625,-6.59895 -1.54382,-3.24702 -3.79356,-6.46644 -4.99945,-7.15427 -1.20587,-0.68782 -2.83709,-3.15042 -3.6249,-5.47243 -0.78782,-2.32201 -1.77177,-4.22184 -2.18655,-4.22184 -0.4148,0 -2.14559,-2.24093 -3.84623,-4.97985 -3.0478,-4.90854 -3.16928,-4.97009 -8.48562,-4.29901 -9.03513,1.14047 -11.12458,-4.26436 -3.12686,-8.08837 6.6434,-3.17646 11.73563,-7.39798 12.45362,-10.32424 0.60887,-2.48146 -0.33507,-3.25207 -1.91757,-1.56546 -0.46695,0.49767 -1.18859,0.92288 -1.60365,0.94491 -0.41507,0.0221 -2.79225,1.41091 -5.28263,3.08639 -9.14903,6.15529 -12.11396,7.06111 -22.21233,6.78615 -8.70365,-0.23697 -10.16832,-0.64137 -16.01872,-4.42273 -7.50876,-4.85323 -9.99206,-9.37534 -10.1939,-18.56315 -0.1072,-4.8775 0.46514,-7.14721 2.56555,-10.17509 3.13819,-4.5239 5.04944,-4.77549 11.62898,-1.53078 2.63925,1.30155 6.32682,2.68735 8.1946,3.07958 1.86779,0.39222 4.00829,0.84834 4.75667,1.01359 0.74837,0.16526 2.27656,1.17618 3.39597,2.24647 1.11941,1.07031 5.60107,3.39809 9.95923,5.17284 4.35817,1.77477 9.87842,4.3076 12.26722,5.62852 2.38879,1.32092 4.56571,2.16458 4.8376,1.87479 1.10177,-1.17424 -1.06773,-4.49164 -2.93742,-4.49164 -1.10235,0 -2.63841,-0.81437 -3.41347,-1.80971 -0.77507,-0.99534 -2.10453,-1.8097 -2.95439,-1.8097 -2.21849,0 -7.06624,-8.71507 -7.88563,-14.17643 -0.45837,-3.05505 -0.0729,-6.24278 1.12411,-9.29613 1.00192,-2.55572 1.68765,-4.72732 1.52383,-4.82579 -0.16382,-0.0984 -2.84484,-1.50811 -5.95782,-3.13256 -3.11298,-1.62444 -6.5193,-3.68534 -7.56961,-4.5798 -2.53255,-2.15673 -4.13687,-0.93345 -3.4919,2.66254 0.5456,3.04185 -1.47844,5.41281 -3.09389,3.62418 -0.51713,-0.57257 -1.2938,-3.6136 -1.72594,-6.75787 -0.66058,-4.80652 -0.47066,-5.84568 1.19274,-6.52597 1.08813,-0.44503 2.80062,-0.19512 3.80555,0.55536 1.00491,0.75048 4.24675,2.71467 7.20407,4.36487 4.57338,2.55195 5.37697,2.70645 5.37697,1.03382 0,-1.08159 -0.814,-2.92518 -1.80888,-4.09684 -2.33565,-2.75067 -1.11209,-5.15493 1.78302,-3.50356 1.1554,0.65904 2.95571,3.9417 4.00069,7.29481 1.55104,4.97702 2.18973,5.84022 3.47805,4.70066 0.86797,-0.76773 1.3966,-1.74156 1.17473,-2.16404 -2.23395,-4.25389 -4.26052,-10.04738 -3.71717,-10.62649 1.06812,-1.13838 6.40948,3.07862 6.40948,5.06026 0,3.01499 1.92854,1.9839 4.29928,-2.2986 l 2.25893,-4.08051 -4.54816,-0.65016 c -6.4894,-0.92768 -7.37463,-2.31771 -4.94556,-7.76573 6.61056,-14.8264 24.48862,-36.93775 39.67814,-49.0734 9.11149,-7.27962 23.53183,-16.21212 31.55363,-19.54554 8.20388,-3.40907 11.5995,-12.87321 8.64878,-24.10554 -1.49231,-5.68074 -3.70724,-7.74017 -6.24543,-5.80701 -0.79209,0.60327 -5.54619,4.21892 -10.56467,8.03479 -28.52761,21.69129 -50.80007,51.44844 -64.08515,85.62105 -1.73323,4.45829 -4.03557,8.95887 -5.11629,10.00127 -1.31064,1.26415 -5.27024,2.14387 -11.89076,2.64183 l -9.92579,0.74657 0.82453,-4.71548 c 1.28473,-7.34732 8.10091,-25.30067 14.32859,-37.74054 9.78073,-19.53712 22.99426,-38.8373 38.5007,-56.2356 7.65321,-8.58693 7.92286,-9.09619 7.96609,-15.04423 0.0465,-6.40768 -1.44868,-9.95709 -6.75736,-16.0406 -4.6913,-5.37601 -3.87376,-6.07935 -19.89846,17.11888 -7.36667,10.66439 -13.48653,21.91157 -17.73301,32.59005 -1.96639,4.94478 -4.34228,10.23817 -5.27976,11.76309 -0.93747,1.52491 -1.3733,2.77257 -0.96849,2.77257 0.4048,0 0.1063,1.22155 -0.66346,2.71456 -0.76971,1.49301 -1.53675,3.58242 -1.70454,4.64314 -0.1678,1.06072 -1.27486,4.33985 -2.46015,7.28694 -1.18528,2.9471 -2.51039,7.2369 -2.94469,9.5329 -0.43429,2.296 -2.76131,11.23239 -5.17115,19.85866 -2.40983,8.62627 -5.17089,18.67014 -6.1357,22.31971 -1.29382,4.89421 -3.24184,8.30258 -7.42295,12.98766 -3.11782,3.49364 -5.66877,7.1774 -5.66877,8.18613 0,2.73717 -3.42299,7.78152 -5.28037,7.78152 -0.8932,0 -3.17424,-0.8544 -5.06897,-1.89867 -4.47272,-2.46511 -5.19289,-1.52035 -2.22606,2.92031 1.31311,1.96543 2.38747,3.91557 2.38747,4.33366 0,0.41809 -2.54698,0.40006 -5.65996,-0.0401 -4.57607,-0.64697 -5.65996,-0.45898 -5.65996,0.98168 0,1.73624 6.30696,5.2935 10.66013,6.01256 3.78252,0.6248 3.24999,3.25073 -1.23174,6.07364 l -4.33443,2.73013 5.65996,0.38621 c 5.346,0.36479 5.84834,0.69639 9.05594,5.97784 1.86779,3.07539 3.73304,6.48391 4.14499,7.57451 0.41197,1.09059 2.98758,3.10437 5.72359,4.47507 2.73601,1.3707 5.64505,3.3532 6.46453,4.4056 1.14181,1.46631 3.69037,1.91342 10.9065,1.91342 5.57636,0 9.72758,0.53643 10.17928,1.31538 0.8386,1.44615 -6.64929,10.30006 -10.25108,12.12118 -1.2452,0.6296 -3.53748,1.93731 -5.09397,2.90605 -2.17734,1.35516 -4.99798,1.58195 -12.23097,0.98339 -5.57139,-0.46105 -11.10494,-0.25776 -13.5839,0.49902 -11.64552,3.55522 -12.90087,3.55604 -19.43359,0.0127 -3.40711,-1.84801 -6.84554,-3.36003 -7.64094,-3.36003 -2.0035,0 -1.81871,2.33633 0.25178,3.18312 2.62539,1.07374 2.00636,2.84923 -0.99338,2.84923 -3.50583,0 -6.07209,3.01791 -3.47089,4.08176 1.0007,0.40927 2.82665,0.74413 4.05767,0.74413 1.231,0 1.92337,0.54291 1.53859,1.20647 -0.38479,0.66356 -1.68833,1.20647 -2.89678,1.20647 -1.20846,0 -2.19719,0.22706 -2.19719,0.50456 0,0.27751 -0.33595,1.43767 -0.74657,2.57813 -0.64804,1.79988 -0.23717,1.96186 3.11298,1.22722 11.63061,-2.5504 16.82147,-1.79977 15.37306,2.22306 -0.54992,1.52736 -1.65563,1.78814 -5.09587,1.20183 -3.82435,-0.65178 -4.47445,-0.41914 -5.01786,1.79559 -0.48092,1.96002 0.001,2.71182 2.10094,3.27338 6.36427,1.70243 12.91316,-2.98663 12.91316,-9.24592 0,-5.52394 5.11821,-7.33562 21.42062,-7.58225 14.18781,-0.21463 18.36822,1.21674 19.99682,6.84689 0.41469,1.43365 3.61829,7.22138 7.11908,12.86164 l 6.36509,10.255 0,9.62838 0,9.62837 -6.08501,3.88655 c -3.34676,2.1376 -8.61183,6.2278 -11.70015,9.08932 -5.35761,4.96412 -5.55053,5.3539 -4.20632,8.49826 1.20954,2.82929 1.1184,3.63757 -0.64419,5.71336 -1.12917,1.32981 -2.76462,2.41784 -3.63432,2.41784 -0.8697,0 -3.46507,1.00879 -5.76751,2.24177 -9.81473,5.25587 -11.79172,6.20353 -12.94169,6.20353 -1.34038,0 -12.89658,5.42842 -15.58238,7.31967 -0.93389,0.65763 -2.58943,1.51469 -3.67897,1.9046 -3.0456,1.08991 -2.34929,2.83991 1.13199,2.84495 l 3.11298,0.005 -3.67897,2.3907 c -4.75433,3.08948 -4.66253,4.09782 0.28299,3.109 4.49994,-0.89974 5.22387,0.65126 1.57527,3.37498 -1.31268,0.97993 -2.05392,2.35558 -1.64719,3.05697 0.74911,1.29184 27.99652,-12.48088 28.74906,-14.53175 z M 794.5326,581.2671 c -0.53997,-0.57551 0.84792,-4.57855 2.1591,-6.22745 0.18035,-0.2268 2.14894,0.28944 4.37464,1.14722 4.1241,1.58941 5.17472,3.19605 2.63172,4.0245 -3.39589,1.10631 -8.5599,1.70112 -9.16546,1.05573 z m 7.35268,123.57895 c 1.26333,-1.09943 1.59781,-3.06099 1.23437,-7.23882 -0.47724,-5.48582 -0.64805,-5.73074 -3.99689,-5.73074 -3.21211,0 -3.32756,0.1331 -1.41106,1.62668 2.23378,1.74086 1.53494,4.40567 -1.15538,4.40567 -2.21649,0 -2.0737,3.18029 0.18425,4.10374 1.03652,0.42392 1.53745,1.51457 1.16751,2.54203 -0.79102,2.19702 1.58729,2.37129 3.9772,0.29144 z m 50.19533,-28.70272 c -0.51158,-2.4825 -0.16628,-4.62767 1.06815,-6.63559 1.00327,-1.63193 1.37471,-2.96715 0.82541,-2.96715 -0.54928,0 -3.31353,-2.17164 -6.14275,-4.82588 -2.82922,-2.65424 -5.92726,-4.82588 -6.88451,-4.82588 -0.95727,0 -2.05531,-0.54292 -2.44009,-1.20648 -0.38479,-0.66355 -1.26774,-1.20647 -1.96212,-1.20647 -0.69437,0 -0.15492,1.25654 1.1988,2.79232 1.35372,1.53578 2.46131,3.35451 2.46131,4.04163 0,0.68712 1.47449,3.41873 3.27666,6.07024 1.80218,2.6515 4.10753,6.53334 5.12303,8.62632 2.39044,4.92673 4.48016,5.00906 3.47611,0.13694 z m 12.07484,-0.60332 c 2.93411,-0.55339 4.33156,-1.53898 4.7955,-3.38211 1.29031,-5.12614 0.79273,-6.82378 -2.00005,-6.82378 -1.51393,0 -5.68956,-2.55918 -9.57056,-5.86565 -6.53836,-5.57047 -25.72299,-15.58846 -27.08082,-14.14128 -0.95965,1.0228 5.2268,6.73575 7.29402,6.73575 2.64532,0 21.85513,13.22048 21.85513,15.04103 0,0.85476 -0.7641,2.22998 -1.69799,3.05604 -0.93389,0.82606 -1.69799,2.82931 -1.69799,4.45167 0,2.24125 0.47582,2.80079 1.98099,2.32955 1.08954,-0.34112 3.84433,-0.97167 6.12177,-1.40122 z m -75.97258,-56.95664 c 0.0273,-3.81547 0.73139,-8.97313 1.56459,-11.46148 0.83321,-2.48835 1.19289,-4.53167 0.7993,-4.54074 -0.39357,-0.01 -1.86174,-0.34384 -3.26258,-0.74395 -1.99579,-0.57004 -2.54698,-0.22474 -2.54698,1.59559 0,1.27768 -0.7479,3.37693 -1.66198,4.66498 -0.9597,1.35231 -1.6772,5.03484 -1.69799,8.71476 -0.0311,5.49991 0.31289,6.52232 2.51098,7.46398 4.10323,1.7578 4.24261,1.57305 4.29466,-5.69314 z m 12.40222,-1.29779 c 0,-7.05926 -0.37584,-8.6113 -2.63242,-10.87073 l -2.63242,-2.63575 -1.25629,2.72706 c -0.69096,1.49988 -1.5845,6.39171 -1.98565,10.87073 l -0.72936,8.14369 4.61807,0 4.61807,0 0,-8.235 z m 11.97871,3.24844 c 3.45645,-2.07905 5.86836,-4.1599 5.35982,-4.62411 -0.50856,-0.46421 -3.90976,-2.02503 -7.55822,-3.46848 -5.61474,-2.22138 -6.5275,-2.32987 -5.94296,-0.70634 0.37984,1.05497 0.69061,4.31682 0.69061,7.24857 0,2.93174 0.26242,5.33044 0.58315,5.33044 0.32073,0 3.41115,-1.70104 6.8676,-3.78008 z m 29.55201,-0.74418 c 1.24012,-5.58881 3.06168,-5.86934 3.54172,-0.54544 l 0.35876,3.97882 6.43319,-0.3594 6.43319,-0.35942 0.34057,-7.68638 0.34056,-7.68639 -3.73653,0.78805 c -4.05628,0.85549 -18.51844,2.22133 -24.32772,2.29758 -2.91456,0.0382 -3.43296,0.41343 -2.68695,1.94463 0.50839,1.04346 0.72239,3.89122 0.47556,6.32834 -0.49597,4.89706 0.22669,5.43113 7.69122,5.68392 3.87783,0.13133 4.19439,-0.13887 5.13643,-4.38431 z m -64.23308,-6.33398 c 0.0531,-1.65889 0.80988,-5.18782 1.68166,-7.84206 1.37809,-4.19572 1.36609,-5.08611 -0.0919,-6.81874 -2.25586,-2.68084 -5.18069,-2.04636 -6.9021,1.49727 -1.67114,3.44012 -0.81421,12.04108 1.73143,17.3782 1.59008,3.33374 1.79026,3.42652 2.60342,1.20647 0.48449,-1.32273 0.92436,-3.76224 0.9775,-5.42114 z m 78.1257,-9.79792 c 10.60186,-2.8145 16.99872,-11.73078 17.01783,-23.7204 0.0146,-9.16824 -6.40647,-17.46808 -14.66437,-18.95503 -2.50872,-0.45174 -4.8638,-1.34296 -5.23349,-1.9805 -1.21447,-2.09434 -12.37226,-0.75257 -18.05678,2.17141 -3.01226,1.54941 -5.9199,2.81713 -6.46145,2.81713 -2.05448,0 -12.67229,12.37962 -14.64445,17.0744 -2.40655,5.72885 -2.53132,8.11716 -0.7543,14.43854 1.50615,5.35784 5.23591,8.42795 11.71149,9.64016 6.61341,1.23802 23.94608,0.40961 31.08552,-1.48571 z"
       id="path3302"
       inkscape:connector-curvature="0" />
  </g>
</svg>
